<?xml version="1.0" encoding="utf-8"?>
<!-- Generator: Adobe Illustrator 17.0.0, SVG Export Plug-In . SVG Version: 6.00 Build 0)  -->
<!DOCTYPE svg PUBLIC "-//W3C//DTD SVG 1.1//EN" "http://www.w3.org/Graphics/SVG/1.1/DTD/svg11.dtd">
<svg version="1.1" id="Layer_1" xmlns="http://www.w3.org/2000/svg" xmlns:xlink="http://www.w3.org/1999/xlink" x="0px" y="0px"
	 width="258.442px" height="68.831px" viewBox="0 0 258.442 68.831" enable-background="new 0 0 258.442 68.831"
	 xml:space="preserve">
<path fill="#EF3D5E" d="M32.438,44.48c-0.634,0.055-1.074,0.055-1.79,0.055h-1.543V33.241h1.543c0.716,0,1.157,0,1.79,0.055
	c2.479,0.22,4.187,2.038,4.187,5.426C36.625,42.111,34.917,44.259,32.438,44.48z M33.76,29.495c-0.964-0.11-1.405-0.11-2.424-0.11
	h-7.189v19.006h7.189c1.019,0,1.46,0,2.424-0.11c4.407-0.496,8.043-3.691,8.043-9.641C41.803,32.69,38.168,29.991,33.76,29.495z"/>
<path fill="#EF3D5E" d="M46.806,48.391V33.682h-4.958v14.709H46.806z M44.327,27.705c-1.543,0-2.562,0.937-2.562,2.424
	c0,1.487,1.019,2.424,2.562,2.424s2.562-0.937,2.562-2.424C46.889,28.641,45.87,27.705,44.327,27.705z"/>
<path fill="#EF3D5E" d="M54.928,44.865c-1.735,0-3.113-1.322-3.113-4.077c0-3.002,1.322-4.132,3.25-4.132
	c1.487,0,3.002,0.992,3.002,3.939v0.083C58.068,43.764,56.746,44.865,54.928,44.865z M63.026,33.682h-4.958v1.901l-0.964-1.57
	c-0.744-0.441-2.176-0.716-3.388-0.716c-3.774,0-6.969,2.617-6.969,7.85c0,4.352,2.755,7.079,6.749,7.079
	c1.487,0,2.644-0.303,3.471-0.909l1.102-1.625v0.413c0,0.799-0.028,1.487-0.055,1.928c-0.138,1.983-1.487,2.782-3.333,2.782
	c-1.543,0-2.672-0.551-2.782-1.515l-0.028-0.275h-4.793l0.028,0.275c0.358,3.361,3.03,5.151,7.437,5.151
	c4.986,0,8.291-2.149,8.456-6.969c0.028-0.799,0.028-1.928,0.028-2.837V33.682z"/>
<path fill="#EF3D5E" d="M68.746,48.391V33.682h-4.958v14.709H68.746z M66.267,27.705c-1.543,0-2.562,0.937-2.562,2.424
	c0,1.487,1.019,2.424,2.562,2.424s2.562-0.937,2.562-2.424C68.829,28.641,67.81,27.705,66.267,27.705z"/>
<polygon fill="#2E2C2B" points="88.337,33.241 88.337,29.385 71.039,29.385 71.039,33.241 77.209,33.241 77.209,48.391 
	82.167,48.391 82.167,33.241 "/>
<path fill="#2E2C2B" d="M94.112,36.657c1.322,0,2.176,0.854,2.452,2.589h-4.986C91.909,37.428,92.818,36.657,94.112,36.657z
	 M101.742,40.844c0-3.801-2.479-7.547-7.382-7.547c-4.903,0-7.85,3.498-7.85,7.795c0,5.178,3.36,7.685,7.575,7.685
	c3.774,0,6.528-1.873,7.382-5.206h-4.875c-0.193,1.129-1.047,1.846-2.452,1.846s-2.479-0.689-2.727-3.14h10.247
	C101.715,41.78,101.742,41.284,101.742,40.844z"/>
<path fill="#2E2C2B" d="M106.527,28.145h-4.958v15.04c0,1.102,0,1.846,0.055,2.617c0.11,1.956,1.405,2.865,3.691,2.865
	c1.102,0,1.983-0.055,2.892-0.138v-3.361c-1.295,0.055-1.543-0.138-1.625-0.716c-0.055-0.358-0.055-0.661-0.055-1.35V28.145z"/>
<path fill="#2E2C2B" d="M114.648,36.657c1.322,0,2.176,0.854,2.452,2.589h-4.986C112.445,37.428,113.354,36.657,114.648,36.657z
	 M122.278,40.844c0-3.801-2.479-7.547-7.382-7.547c-4.903,0-7.85,3.498-7.85,7.795c0,5.178,3.36,7.685,7.575,7.685
	c3.774,0,6.528-1.873,7.382-5.206h-4.875c-0.193,1.129-1.047,1.846-2.452,1.846c-1.405,0-2.479-0.689-2.727-3.14h10.247
	C122.251,41.78,122.278,41.284,122.278,40.844z"/>
<path fill="#2E2C2B" d="M143.752,48.391V29.385h-4.958v8.126c0,1.102,0.028,3.057,0.165,4.986l-7.217-13.111h-6.17v19.006h4.958
	v-7.85c0-1.102,0-2.782-0.165-4.71l6.914,12.561H143.752z"/>
<path fill="#2E2C2B" d="M151.288,36.657c1.322,0,2.176,0.854,2.452,2.589h-4.986C149.085,37.428,149.994,36.657,151.288,36.657z
	 M158.918,40.844c0-3.801-2.479-7.547-7.382-7.547c-4.903,0-7.85,3.498-7.85,7.795c0,5.178,3.36,7.685,7.575,7.685
	c3.774,0,6.528-1.873,7.382-5.206h-4.875c-0.193,1.129-1.047,1.846-2.452,1.846c-1.405,0-2.479-0.689-2.727-3.14h10.247
	C158.891,41.78,158.918,41.284,158.918,40.844z"/>
<path fill="#2E2C2B" d="M164.805,36.877h3.25v-3.085h-3.25v-3.801h-4.958v3.801h-2.341v3.085h2.341v6.143
	c0,0.826,0,1.515,0.055,2.369c0.165,2.259,1.267,3.388,4.931,3.388c1.047,0,1.956-0.083,2.92-0.248v-3.085
	c-2.341,0.11-2.81-0.22-2.92-1.708c-0.028-0.386-0.028-0.937-0.028-1.432V36.877z"/>
<polygon fill="#2E2C2B" points="190.306,33.682 184.962,33.682 183.089,44.232 181.216,33.792 175.321,33.792 173.558,44.204 
	171.63,33.682 166.176,33.682 170.831,48.391 176.368,48.391 178.241,38.475 180.114,48.391 185.65,48.391 "/>
<path fill="#2E2C2B" d="M196.436,45.416c-1.763,0-2.837-1.46-2.837-4.38c0-2.947,1.074-4.38,2.837-4.38
	c1.763,0,2.837,1.432,2.837,4.38C199.273,43.956,198.199,45.416,196.436,45.416z M196.436,33.296c-4.82,0-7.905,3.002-7.905,7.74
	c0,4.71,3.085,7.74,7.905,7.74c4.82,0,7.905-3.03,7.905-7.74C204.341,36.299,201.256,33.296,196.436,33.296z"/>
<path fill="#2E2C2B" d="M213.175,33.296c-0.937,0-2.093,0.413-2.892,1.295l-1.047,2.066v-2.975h-4.958v14.709h4.958v-5.399
	c0-4.435,1.35-5.812,5.068-5.564v-4.049C213.946,33.324,213.643,33.296,213.175,33.296z"/>
<polygon fill="#2E2C2B" points="219.642,42.937 223.581,48.391 229.668,48.391 223.36,40.431 229.586,33.682 223.774,33.682 
	218.595,39.852 218.595,28.145 213.637,28.145 213.637,48.391 218.595,48.391 218.595,44.094 "/>
<path fill="#2E2C2B" d="M234.893,33.296c-3.911,0-6.446,1.818-6.446,4.738c0,2.507,1.68,3.801,4.49,4.462
	c2.617,0.606,3.553,1.129,3.553,2.066c0,0.771-0.689,1.129-1.57,1.129c-1.047,0-1.928-0.744-2.204-1.873h-4.875
	c0.386,3.305,3.113,4.958,7.107,4.958c3.553,0,6.501-1.46,6.501-4.6c0-2.837-1.901-3.994-4.572-4.655
	c-2.81-0.689-3.471-1.24-3.471-2.066c0-0.634,0.496-1.074,1.184-1.074c0.881,0,1.377,0.578,1.598,1.598h4.876
	C240.677,35.307,238.556,33.296,234.893,33.296z"/>
</svg>
